<mxfile host="Electron" modified="2024-05-03T09:03:45.212Z" agent="Mozilla/5.0 (Windows NT 10.0; Win64; x64) AppleWebKit/537.36 (KHTML, like Gecko) draw.io/24.2.5 Chrome/120.0.6099.109 Electron/28.1.0 Safari/537.36" etag="P_xQX_o74TnQTEB3pWXA" version="24.2.5" type="device">
  <diagram id="C5RBs43oDa-KdzZeNtuy" name="Page-1">
    <mxGraphModel dx="2261" dy="844" grid="1" gridSize="10" guides="1" tooltips="1" connect="1" arrows="1" fold="1" page="1" pageScale="1" pageWidth="827" pageHeight="1169" math="0" shadow="0">
      <root>
        <mxCell id="WIyWlLk6GJQsqaUBKTNV-0" />
        <mxCell id="WIyWlLk6GJQsqaUBKTNV-1" parent="WIyWlLk6GJQsqaUBKTNV-0" />
        <mxCell id="qBAjYYBK-Vlji8AeGftC-4" value="Yes" style="text;strokeColor=none;align=center;fillColor=none;html=1;verticalAlign=middle;whiteSpace=wrap;rounded=0;" parent="WIyWlLk6GJQsqaUBKTNV-1" vertex="1">
          <mxGeometry x="305" y="133" width="30" height="20" as="geometry" />
        </mxCell>
        <mxCell id="qBAjYYBK-Vlji8AeGftC-8" value="No" style="text;strokeColor=none;align=center;fillColor=none;html=1;verticalAlign=middle;whiteSpace=wrap;rounded=0;" parent="WIyWlLk6GJQsqaUBKTNV-1" vertex="1">
          <mxGeometry x="245" y="199" width="30" height="20" as="geometry" />
        </mxCell>
        <mxCell id="qBAjYYBK-Vlji8AeGftC-11" value="Yes" style="text;strokeColor=none;align=center;fillColor=none;html=1;verticalAlign=middle;whiteSpace=wrap;rounded=0;" parent="WIyWlLk6GJQsqaUBKTNV-1" vertex="1">
          <mxGeometry x="243" y="346" width="30" height="20" as="geometry" />
        </mxCell>
        <mxCell id="qBAjYYBK-Vlji8AeGftC-35" style="edgeStyle=orthogonalEdgeStyle;rounded=0;orthogonalLoop=1;jettySize=auto;html=1;entryX=0.5;entryY=0;entryDx=0;entryDy=0;" parent="WIyWlLk6GJQsqaUBKTNV-1" source="qBAjYYBK-Vlji8AeGftC-36" target="qBAjYYBK-Vlji8AeGftC-39" edge="1">
          <mxGeometry relative="1" as="geometry" />
        </mxCell>
        <mxCell id="qBAjYYBK-Vlji8AeGftC-36" value="A move is played" style="strokeWidth=2;html=1;shape=mxgraph.flowchart.terminator;whiteSpace=wrap;" parent="WIyWlLk6GJQsqaUBKTNV-1" vertex="1">
          <mxGeometry x="175" y="19" width="140" height="60" as="geometry" />
        </mxCell>
        <mxCell id="qBAjYYBK-Vlji8AeGftC-38" style="edgeStyle=orthogonalEdgeStyle;rounded=0;orthogonalLoop=1;jettySize=auto;html=1;entryX=0.5;entryY=0;entryDx=0;entryDy=0;" parent="WIyWlLk6GJQsqaUBKTNV-1" source="qBAjYYBK-Vlji8AeGftC-39" target="qBAjYYBK-Vlji8AeGftC-46" edge="1">
          <mxGeometry relative="1" as="geometry" />
        </mxCell>
        <mxCell id="qBAjYYBK-Vlji8AeGftC-89" value="" style="edgeStyle=orthogonalEdgeStyle;rounded=0;orthogonalLoop=1;jettySize=auto;html=1;" parent="WIyWlLk6GJQsqaUBKTNV-1" source="qBAjYYBK-Vlji8AeGftC-39" target="qBAjYYBK-Vlji8AeGftC-40" edge="1">
          <mxGeometry relative="1" as="geometry" />
        </mxCell>
        <mxCell id="qBAjYYBK-Vlji8AeGftC-39" value="Is the player&#39;s king in check?" style="rhombus;whiteSpace=wrap;html=1;rounded=0;" parent="WIyWlLk6GJQsqaUBKTNV-1" vertex="1">
          <mxGeometry x="185" y="109" width="120" height="90" as="geometry" />
        </mxCell>
        <mxCell id="qBAjYYBK-Vlji8AeGftC-90" style="edgeStyle=orthogonalEdgeStyle;rounded=0;orthogonalLoop=1;jettySize=auto;html=1;" parent="WIyWlLk6GJQsqaUBKTNV-1" source="qBAjYYBK-Vlji8AeGftC-40" edge="1">
          <mxGeometry relative="1" as="geometry">
            <mxPoint x="245" y="219" as="targetPoint" />
            <Array as="points">
              <mxPoint x="460" y="219" />
            </Array>
          </mxGeometry>
        </mxCell>
        <mxCell id="qBAjYYBK-Vlji8AeGftC-93" value="" style="edgeStyle=orthogonalEdgeStyle;rounded=0;orthogonalLoop=1;jettySize=auto;html=1;" parent="WIyWlLk6GJQsqaUBKTNV-1" source="qBAjYYBK-Vlji8AeGftC-40" target="qBAjYYBK-Vlji8AeGftC-92" edge="1">
          <mxGeometry relative="1" as="geometry" />
        </mxCell>
        <mxCell id="qBAjYYBK-Vlji8AeGftC-40" value="Does the player have a legal move they can play?" style="rhombus;whiteSpace=wrap;html=1;rounded=0;" parent="WIyWlLk6GJQsqaUBKTNV-1" vertex="1">
          <mxGeometry x="385" y="99" width="150" height="110" as="geometry" />
        </mxCell>
        <mxCell id="qBAjYYBK-Vlji8AeGftC-45" style="edgeStyle=orthogonalEdgeStyle;rounded=0;orthogonalLoop=1;jettySize=auto;html=1;entryX=0.5;entryY=0;entryDx=0;entryDy=0;" parent="WIyWlLk6GJQsqaUBKTNV-1" source="qBAjYYBK-Vlji8AeGftC-46" target="qBAjYYBK-Vlji8AeGftC-48" edge="1">
          <mxGeometry relative="1" as="geometry" />
        </mxCell>
        <mxCell id="qBAjYYBK-Vlji8AeGftC-96" value="" style="edgeStyle=orthogonalEdgeStyle;rounded=0;orthogonalLoop=1;jettySize=auto;html=1;" parent="WIyWlLk6GJQsqaUBKTNV-1" source="qBAjYYBK-Vlji8AeGftC-46" target="qBAjYYBK-Vlji8AeGftC-95" edge="1">
          <mxGeometry relative="1" as="geometry" />
        </mxCell>
        <mxCell id="qBAjYYBK-Vlji8AeGftC-46" value="Does the player have any legal moves they can play?" style="rhombus;whiteSpace=wrap;html=1;rounded=0;" parent="WIyWlLk6GJQsqaUBKTNV-1" vertex="1">
          <mxGeometry x="170" y="239" width="150" height="110" as="geometry" />
        </mxCell>
        <mxCell id="qBAjYYBK-Vlji8AeGftC-47" style="edgeStyle=orthogonalEdgeStyle;rounded=0;orthogonalLoop=1;jettySize=auto;html=1;entryX=0.5;entryY=0;entryDx=0;entryDy=0;" parent="WIyWlLk6GJQsqaUBKTNV-1" source="qBAjYYBK-Vlji8AeGftC-48" target="qBAjYYBK-Vlji8AeGftC-50" edge="1">
          <mxGeometry relative="1" as="geometry" />
        </mxCell>
        <mxCell id="qBAjYYBK-Vlji8AeGftC-99" value="" style="edgeStyle=orthogonalEdgeStyle;rounded=0;orthogonalLoop=1;jettySize=auto;html=1;" parent="WIyWlLk6GJQsqaUBKTNV-1" source="qBAjYYBK-Vlji8AeGftC-48" target="qBAjYYBK-Vlji8AeGftC-98" edge="1">
          <mxGeometry relative="1" as="geometry" />
        </mxCell>
        <mxCell id="qBAjYYBK-Vlji8AeGftC-48" value="Do the players have enough material to end the game?" style="rhombus;whiteSpace=wrap;html=1;rounded=0;" parent="WIyWlLk6GJQsqaUBKTNV-1" vertex="1">
          <mxGeometry x="170" y="379" width="150" height="110" as="geometry" />
        </mxCell>
        <mxCell id="qBAjYYBK-Vlji8AeGftC-49" style="edgeStyle=orthogonalEdgeStyle;rounded=0;orthogonalLoop=1;jettySize=auto;html=1;entryX=0.5;entryY=0;entryDx=0;entryDy=0;" parent="WIyWlLk6GJQsqaUBKTNV-1" source="qBAjYYBK-Vlji8AeGftC-50" target="qBAjYYBK-Vlji8AeGftC-52" edge="1">
          <mxGeometry relative="1" as="geometry" />
        </mxCell>
        <mxCell id="qBAjYYBK-Vlji8AeGftC-101" value="" style="edgeStyle=orthogonalEdgeStyle;rounded=0;orthogonalLoop=1;jettySize=auto;html=1;" parent="WIyWlLk6GJQsqaUBKTNV-1" source="qBAjYYBK-Vlji8AeGftC-50" target="qBAjYYBK-Vlji8AeGftC-100" edge="1">
          <mxGeometry relative="1" as="geometry" />
        </mxCell>
        <mxCell id="qBAjYYBK-Vlji8AeGftC-50" value="Has the same move been played three times in a row?" style="rhombus;whiteSpace=wrap;html=1;rounded=0;" parent="WIyWlLk6GJQsqaUBKTNV-1" vertex="1">
          <mxGeometry x="170" y="518" width="150" height="110" as="geometry" />
        </mxCell>
        <mxCell id="qBAjYYBK-Vlji8AeGftC-51" value="" style="edgeStyle=orthogonalEdgeStyle;rounded=0;orthogonalLoop=1;jettySize=auto;html=1;" parent="WIyWlLk6GJQsqaUBKTNV-1" source="qBAjYYBK-Vlji8AeGftC-52" target="qBAjYYBK-Vlji8AeGftC-54" edge="1">
          <mxGeometry relative="1" as="geometry" />
        </mxCell>
        <mxCell id="qBAjYYBK-Vlji8AeGftC-103" value="" style="edgeStyle=orthogonalEdgeStyle;rounded=0;orthogonalLoop=1;jettySize=auto;html=1;" parent="WIyWlLk6GJQsqaUBKTNV-1" source="qBAjYYBK-Vlji8AeGftC-52" target="qBAjYYBK-Vlji8AeGftC-102" edge="1">
          <mxGeometry relative="1" as="geometry" />
        </mxCell>
        <mxCell id="qBAjYYBK-Vlji8AeGftC-52" value="Have 50 moves been played without a capture or a pawn move?" style="rhombus;whiteSpace=wrap;html=1;rounded=0;" parent="WIyWlLk6GJQsqaUBKTNV-1" vertex="1">
          <mxGeometry x="170" y="669" width="150" height="110" as="geometry" />
        </mxCell>
        <mxCell id="qBAjYYBK-Vlji8AeGftC-53" value="" style="edgeStyle=orthogonalEdgeStyle;rounded=0;orthogonalLoop=1;jettySize=auto;html=1;" parent="WIyWlLk6GJQsqaUBKTNV-1" source="qBAjYYBK-Vlji8AeGftC-54" target="qBAjYYBK-Vlji8AeGftC-57" edge="1">
          <mxGeometry relative="1" as="geometry" />
        </mxCell>
        <mxCell id="qBAjYYBK-Vlji8AeGftC-54" value="The player asks for a draw" style="whiteSpace=wrap;html=1;rounded=0;" parent="WIyWlLk6GJQsqaUBKTNV-1" vertex="1">
          <mxGeometry x="185" y="809" width="120" height="60" as="geometry" />
        </mxCell>
        <mxCell id="qBAjYYBK-Vlji8AeGftC-56" value="" style="edgeStyle=orthogonalEdgeStyle;rounded=0;orthogonalLoop=1;jettySize=auto;html=1;" parent="WIyWlLk6GJQsqaUBKTNV-1" source="qBAjYYBK-Vlji8AeGftC-57" target="qBAjYYBK-Vlji8AeGftC-60" edge="1">
          <mxGeometry relative="1" as="geometry" />
        </mxCell>
        <mxCell id="qBAjYYBK-Vlji8AeGftC-63" value="" style="edgeStyle=orthogonalEdgeStyle;rounded=0;orthogonalLoop=1;jettySize=auto;html=1;" parent="WIyWlLk6GJQsqaUBKTNV-1" source="qBAjYYBK-Vlji8AeGftC-57" target="qBAjYYBK-Vlji8AeGftC-58" edge="1">
          <mxGeometry relative="1" as="geometry" />
        </mxCell>
        <mxCell id="qBAjYYBK-Vlji8AeGftC-57" value="Does the other player agree to the draw?" style="rhombus;whiteSpace=wrap;html=1;rounded=0;" parent="WIyWlLk6GJQsqaUBKTNV-1" vertex="1">
          <mxGeometry x="170" y="899" width="150" height="110" as="geometry" />
        </mxCell>
        <mxCell id="qBAjYYBK-Vlji8AeGftC-114" style="edgeStyle=orthogonalEdgeStyle;rounded=0;orthogonalLoop=1;jettySize=auto;html=1;" parent="WIyWlLk6GJQsqaUBKTNV-1" source="qBAjYYBK-Vlji8AeGftC-58" edge="1">
          <mxGeometry relative="1" as="geometry">
            <mxPoint x="821" y="954" as="targetPoint" />
          </mxGeometry>
        </mxCell>
        <mxCell id="qBAjYYBK-Vlji8AeGftC-58" value="End the game with draw by agreement status" style="whiteSpace=wrap;html=1;rounded=0;" parent="WIyWlLk6GJQsqaUBKTNV-1" vertex="1">
          <mxGeometry x="588" y="924" width="120" height="60" as="geometry" />
        </mxCell>
        <mxCell id="qBAjYYBK-Vlji8AeGftC-62" value="" style="edgeStyle=orthogonalEdgeStyle;rounded=0;orthogonalLoop=1;jettySize=auto;html=1;" parent="WIyWlLk6GJQsqaUBKTNV-1" source="qBAjYYBK-Vlji8AeGftC-60" target="qBAjYYBK-Vlji8AeGftC-61" edge="1">
          <mxGeometry relative="1" as="geometry" />
        </mxCell>
        <mxCell id="qBAjYYBK-Vlji8AeGftC-60" value="Player&#39;s timer has ran out" style="whiteSpace=wrap;html=1;rounded=0;" parent="WIyWlLk6GJQsqaUBKTNV-1" vertex="1">
          <mxGeometry x="185" y="1040" width="120" height="60" as="geometry" />
        </mxCell>
        <mxCell id="qBAjYYBK-Vlji8AeGftC-115" style="edgeStyle=orthogonalEdgeStyle;rounded=0;orthogonalLoop=1;jettySize=auto;html=1;" parent="WIyWlLk6GJQsqaUBKTNV-1" source="qBAjYYBK-Vlji8AeGftC-61" edge="1">
          <mxGeometry relative="1" as="geometry">
            <mxPoint x="821" y="1070" as="targetPoint" />
          </mxGeometry>
        </mxCell>
        <mxCell id="qBAjYYBK-Vlji8AeGftC-61" value="End the game with timeout status" style="whiteSpace=wrap;html=1;rounded=0;" parent="WIyWlLk6GJQsqaUBKTNV-1" vertex="1">
          <mxGeometry x="588" y="1040" width="120" height="60" as="geometry" />
        </mxCell>
        <mxCell id="qBAjYYBK-Vlji8AeGftC-91" value="Yes" style="text;strokeColor=none;align=center;fillColor=none;html=1;verticalAlign=middle;whiteSpace=wrap;rounded=0;" parent="WIyWlLk6GJQsqaUBKTNV-1" vertex="1">
          <mxGeometry x="425" y="202" width="30" height="20" as="geometry" />
        </mxCell>
        <mxCell id="qBAjYYBK-Vlji8AeGftC-92" value="End the game with checkmate status" style="whiteSpace=wrap;html=1;rounded=0;" parent="WIyWlLk6GJQsqaUBKTNV-1" vertex="1">
          <mxGeometry x="588" y="124" width="120" height="60" as="geometry" />
        </mxCell>
        <mxCell id="qBAjYYBK-Vlji8AeGftC-94" value="No" style="text;strokeColor=none;align=center;fillColor=none;html=1;verticalAlign=middle;whiteSpace=wrap;rounded=0;" parent="WIyWlLk6GJQsqaUBKTNV-1" vertex="1">
          <mxGeometry x="534" y="134" width="30" height="20" as="geometry" />
        </mxCell>
        <mxCell id="qBAjYYBK-Vlji8AeGftC-106" style="edgeStyle=orthogonalEdgeStyle;rounded=0;orthogonalLoop=1;jettySize=auto;html=1;" parent="WIyWlLk6GJQsqaUBKTNV-1" source="qBAjYYBK-Vlji8AeGftC-95" edge="1">
          <mxGeometry relative="1" as="geometry">
            <mxPoint x="821" y="294" as="targetPoint" />
          </mxGeometry>
        </mxCell>
        <mxCell id="qBAjYYBK-Vlji8AeGftC-95" value="End the game with stalemate status" style="whiteSpace=wrap;html=1;rounded=0;" parent="WIyWlLk6GJQsqaUBKTNV-1" vertex="1">
          <mxGeometry x="588" y="264" width="120" height="60" as="geometry" />
        </mxCell>
        <mxCell id="qBAjYYBK-Vlji8AeGftC-97" value="No" style="text;strokeColor=none;align=center;fillColor=none;html=1;verticalAlign=middle;whiteSpace=wrap;rounded=0;" parent="WIyWlLk6GJQsqaUBKTNV-1" vertex="1">
          <mxGeometry x="319" y="274" width="30" height="20" as="geometry" />
        </mxCell>
        <mxCell id="qBAjYYBK-Vlji8AeGftC-107" style="edgeStyle=orthogonalEdgeStyle;rounded=0;orthogonalLoop=1;jettySize=auto;html=1;" parent="WIyWlLk6GJQsqaUBKTNV-1" source="qBAjYYBK-Vlji8AeGftC-98" edge="1">
          <mxGeometry relative="1" as="geometry">
            <mxPoint x="821" y="434" as="targetPoint" />
          </mxGeometry>
        </mxCell>
        <mxCell id="qBAjYYBK-Vlji8AeGftC-98" value="End the game with insufficient material status" style="whiteSpace=wrap;html=1;rounded=0;" parent="WIyWlLk6GJQsqaUBKTNV-1" vertex="1">
          <mxGeometry x="588" y="404" width="120" height="60" as="geometry" />
        </mxCell>
        <mxCell id="qBAjYYBK-Vlji8AeGftC-108" style="edgeStyle=orthogonalEdgeStyle;rounded=0;orthogonalLoop=1;jettySize=auto;html=1;" parent="WIyWlLk6GJQsqaUBKTNV-1" source="qBAjYYBK-Vlji8AeGftC-100" edge="1">
          <mxGeometry relative="1" as="geometry">
            <mxPoint x="821" y="573.5" as="targetPoint" />
          </mxGeometry>
        </mxCell>
        <mxCell id="qBAjYYBK-Vlji8AeGftC-100" value="End the game with theefold repitition status" style="whiteSpace=wrap;html=1;rounded=0;" parent="WIyWlLk6GJQsqaUBKTNV-1" vertex="1">
          <mxGeometry x="588" y="543.5" width="120" height="60" as="geometry" />
        </mxCell>
        <mxCell id="qBAjYYBK-Vlji8AeGftC-109" style="edgeStyle=orthogonalEdgeStyle;rounded=0;orthogonalLoop=1;jettySize=auto;html=1;" parent="WIyWlLk6GJQsqaUBKTNV-1" source="qBAjYYBK-Vlji8AeGftC-102" edge="1">
          <mxGeometry relative="1" as="geometry">
            <mxPoint x="821" y="724" as="targetPoint" />
          </mxGeometry>
        </mxCell>
        <mxCell id="qBAjYYBK-Vlji8AeGftC-102" value="End the game with fifty-move rule status" style="whiteSpace=wrap;html=1;rounded=0;" parent="WIyWlLk6GJQsqaUBKTNV-1" vertex="1">
          <mxGeometry x="588" y="694" width="120" height="60" as="geometry" />
        </mxCell>
        <mxCell id="qBAjYYBK-Vlji8AeGftC-104" value="End process" style="strokeWidth=2;html=1;shape=mxgraph.flowchart.terminator;whiteSpace=wrap;" parent="WIyWlLk6GJQsqaUBKTNV-1" vertex="1">
          <mxGeometry x="751" y="1100" width="140" height="60" as="geometry" />
        </mxCell>
        <mxCell id="qBAjYYBK-Vlji8AeGftC-105" style="edgeStyle=orthogonalEdgeStyle;rounded=0;orthogonalLoop=1;jettySize=auto;html=1;entryX=0.5;entryY=0;entryDx=0;entryDy=0;entryPerimeter=0;" parent="WIyWlLk6GJQsqaUBKTNV-1" source="qBAjYYBK-Vlji8AeGftC-92" target="qBAjYYBK-Vlji8AeGftC-104" edge="1">
          <mxGeometry relative="1" as="geometry" />
        </mxCell>
        <mxCell id="qBAjYYBK-Vlji8AeGftC-116" value="Yes" style="text;strokeColor=none;align=center;fillColor=none;html=1;verticalAlign=middle;whiteSpace=wrap;rounded=0;" parent="WIyWlLk6GJQsqaUBKTNV-1" vertex="1">
          <mxGeometry x="243" y="489" width="30" height="20" as="geometry" />
        </mxCell>
        <mxCell id="qBAjYYBK-Vlji8AeGftC-117" value="No" style="text;strokeColor=none;align=center;fillColor=none;html=1;verticalAlign=middle;whiteSpace=wrap;rounded=0;" parent="WIyWlLk6GJQsqaUBKTNV-1" vertex="1">
          <mxGeometry x="319" y="413" width="30" height="20" as="geometry" />
        </mxCell>
        <mxCell id="qBAjYYBK-Vlji8AeGftC-118" value="Yes" style="text;strokeColor=none;align=center;fillColor=none;html=1;verticalAlign=middle;whiteSpace=wrap;rounded=0;" parent="WIyWlLk6GJQsqaUBKTNV-1" vertex="1">
          <mxGeometry x="319" y="553" width="30" height="20" as="geometry" />
        </mxCell>
        <mxCell id="qBAjYYBK-Vlji8AeGftC-119" value="Yes" style="text;strokeColor=none;align=center;fillColor=none;html=1;verticalAlign=middle;whiteSpace=wrap;rounded=0;" parent="WIyWlLk6GJQsqaUBKTNV-1" vertex="1">
          <mxGeometry x="320" y="704" width="30" height="20" as="geometry" />
        </mxCell>
        <mxCell id="qBAjYYBK-Vlji8AeGftC-120" value="Yes" style="text;strokeColor=none;align=center;fillColor=none;html=1;verticalAlign=middle;whiteSpace=wrap;rounded=0;" parent="WIyWlLk6GJQsqaUBKTNV-1" vertex="1">
          <mxGeometry x="320" y="933" width="30" height="20" as="geometry" />
        </mxCell>
        <mxCell id="qBAjYYBK-Vlji8AeGftC-121" value="No" style="text;strokeColor=none;align=center;fillColor=none;html=1;verticalAlign=middle;whiteSpace=wrap;rounded=0;" parent="WIyWlLk6GJQsqaUBKTNV-1" vertex="1">
          <mxGeometry x="245" y="628" width="30" height="20" as="geometry" />
        </mxCell>
        <mxCell id="qBAjYYBK-Vlji8AeGftC-122" value="No" style="text;strokeColor=none;align=center;fillColor=none;html=1;verticalAlign=middle;whiteSpace=wrap;rounded=0;" parent="WIyWlLk6GJQsqaUBKTNV-1" vertex="1">
          <mxGeometry x="245" y="779" width="30" height="20" as="geometry" />
        </mxCell>
        <mxCell id="qBAjYYBK-Vlji8AeGftC-123" value="No" style="text;strokeColor=none;align=center;fillColor=none;html=1;verticalAlign=middle;whiteSpace=wrap;rounded=0;" parent="WIyWlLk6GJQsqaUBKTNV-1" vertex="1">
          <mxGeometry x="245" y="1008" width="30" height="20" as="geometry" />
        </mxCell>
        <mxCell id="RCBskYDziO6Am-EUOcaW-0" value="&lt;b&gt;TPI - Unity chess game&lt;/b&gt;&lt;div style=&quot;font-size: 11px;&quot;&gt;&lt;font style=&quot;font-size: 11px;&quot;&gt;By: Arthur Bottemanne&lt;/font&gt;&lt;/div&gt;&lt;div style=&quot;font-size: 11px;&quot;&gt;&lt;font style=&quot;font-size: 11px;&quot;&gt;Date: 03.05.2024&lt;/font&gt;&lt;/div&gt;&lt;div style=&quot;font-size: 11px;&quot;&gt;&lt;font style=&quot;font-size: 11px;&quot;&gt;Description: Flow diagram representing the game ending conditions&lt;/font&gt;&lt;/div&gt;" style="rounded=0;whiteSpace=wrap;html=1;" parent="WIyWlLk6GJQsqaUBKTNV-1" vertex="1">
          <mxGeometry x="-20" y="1060" width="180" height="91" as="geometry" />
        </mxCell>
      </root>
    </mxGraphModel>
  </diagram>
</mxfile>
